%TF.GenerationSoftware,KiCad,Pcbnew,7.0.7*%
%TF.CreationDate,2023-09-14T11:38:14+02:00*%
%TF.ProjectId,SensorCube Template,53656e73-6f72-4437-9562-652054656d70,rev?*%
%TF.SameCoordinates,Original*%
%TF.FileFunction,Soldermask,Top*%
%TF.FilePolarity,Negative*%
%FSLAX46Y46*%
G04 Gerber Fmt 4.6, Leading zero omitted, Abs format (unit mm)*
G04 Created by KiCad (PCBNEW 7.0.7) date 2023-09-14 11:38:14*
%MOMM*%
%LPD*%
G01*
G04 APERTURE LIST*
%ADD10C,3.200000*%
%ADD11R,1.700000X1.700000*%
%ADD12O,1.700000X1.700000*%
G04 APERTURE END LIST*
D10*
%TO.C,H3*%
X105000000Y-125000000D03*
%TD*%
%TO.C,H2*%
X175000000Y-55000000D03*
%TD*%
%TO.C,H4*%
X175000000Y-125000000D03*
%TD*%
%TO.C,H1*%
X105000000Y-55000000D03*
%TD*%
D11*
%TO.C,J1*%
X115875000Y-126275000D03*
D12*
X115875000Y-123735000D03*
X118415000Y-126275000D03*
X118415000Y-123735000D03*
X120955000Y-126275000D03*
X120955000Y-123735000D03*
X123495000Y-126275000D03*
X123495000Y-123735000D03*
X126035000Y-126275000D03*
X126035000Y-123735000D03*
X128575000Y-126275000D03*
X128575000Y-123735000D03*
X131115000Y-126275000D03*
X131115000Y-123735000D03*
X133655000Y-126275000D03*
X133655000Y-123735000D03*
X136195000Y-126275000D03*
X136195000Y-123735000D03*
X138735000Y-126275000D03*
X138735000Y-123735000D03*
X141275000Y-126275000D03*
X141275000Y-123735000D03*
X143815000Y-126275000D03*
X143815000Y-123735000D03*
X146355000Y-126275000D03*
X146355000Y-123735000D03*
X148895000Y-126275000D03*
X148895000Y-123735000D03*
X151435000Y-126275000D03*
X151435000Y-123735000D03*
X153975000Y-126275000D03*
X153975000Y-123735000D03*
X156515000Y-126275000D03*
X156515000Y-123735000D03*
X159055000Y-126275000D03*
X159055000Y-123735000D03*
X161595000Y-126275000D03*
X161595000Y-123735000D03*
X164135000Y-126275000D03*
X164135000Y-123735000D03*
%TD*%
M02*
