%TF.GenerationSoftware,KiCad,Pcbnew,7.0.7*%
%TF.CreationDate,2023-09-14T11:38:22+02:00*%
%TF.ProjectId,SensorCube Template,53656e73-6f72-4437-9562-652054656d70,rev?*%
%TF.SameCoordinates,Original*%
%TF.FileFunction,Drillmap*%
%TF.FilePolarity,Positive*%
%FSLAX45Y45*%
G04 Gerber Fmt 4.5, Leading zero omitted, Abs format (unit mm)*
G04 Created by KiCad (PCBNEW 7.0.7) date 2023-09-14 11:38:22*
%MOMM*%
%LPD*%
G01*
G04 APERTURE LIST*
%ADD10C,0.100000*%
%ADD11C,0.200000*%
G04 APERTURE END LIST*
D10*
X10000000Y-12960000D02*
G75*
G03*
X10040000Y-13000000I40000J0D01*
G01*
X18000000Y-12960000D02*
X18000000Y-5040000D01*
X10000000Y-5040000D02*
X10000000Y-12960000D01*
X18000000Y-5040000D02*
G75*
G03*
X17960000Y-5000000I-40000J0D01*
G01*
X10040000Y-5000000D02*
G75*
G03*
X10000000Y-5040000I0J-40000D01*
G01*
X17960000Y-13000000D02*
G75*
G03*
X18000000Y-12960000I0J40000D01*
G01*
X17960000Y-5000000D02*
X10040000Y-5000000D01*
X10040000Y-13000000D02*
X17960000Y-13000000D01*
D11*
D10*
X11537500Y-12323500D02*
X11637500Y-12423500D01*
X11637500Y-12323500D02*
X11537500Y-12423500D01*
X11537500Y-12577500D02*
X11637500Y-12677500D01*
X11637500Y-12577500D02*
X11537500Y-12677500D01*
X11791500Y-12323500D02*
X11891500Y-12423500D01*
X11891500Y-12323500D02*
X11791500Y-12423500D01*
X11791500Y-12577500D02*
X11891500Y-12677500D01*
X11891500Y-12577500D02*
X11791500Y-12677500D01*
X12045500Y-12323500D02*
X12145500Y-12423500D01*
X12145500Y-12323500D02*
X12045500Y-12423500D01*
X12045500Y-12577500D02*
X12145500Y-12677500D01*
X12145500Y-12577500D02*
X12045500Y-12677500D01*
X12299500Y-12323500D02*
X12399500Y-12423500D01*
X12399500Y-12323500D02*
X12299500Y-12423500D01*
X12299500Y-12577500D02*
X12399500Y-12677500D01*
X12399500Y-12577500D02*
X12299500Y-12677500D01*
X12553500Y-12323500D02*
X12653500Y-12423500D01*
X12653500Y-12323500D02*
X12553500Y-12423500D01*
X12553500Y-12577500D02*
X12653500Y-12677500D01*
X12653500Y-12577500D02*
X12553500Y-12677500D01*
X12807500Y-12323500D02*
X12907500Y-12423500D01*
X12907500Y-12323500D02*
X12807500Y-12423500D01*
X12807500Y-12577500D02*
X12907500Y-12677500D01*
X12907500Y-12577500D02*
X12807500Y-12677500D01*
X13061500Y-12323500D02*
X13161500Y-12423500D01*
X13161500Y-12323500D02*
X13061500Y-12423500D01*
X13061500Y-12577500D02*
X13161500Y-12677500D01*
X13161500Y-12577500D02*
X13061500Y-12677500D01*
X13315500Y-12323500D02*
X13415500Y-12423500D01*
X13415500Y-12323500D02*
X13315500Y-12423500D01*
X13315500Y-12577500D02*
X13415500Y-12677500D01*
X13415500Y-12577500D02*
X13315500Y-12677500D01*
X13569500Y-12323500D02*
X13669500Y-12423500D01*
X13669500Y-12323500D02*
X13569500Y-12423500D01*
X13569500Y-12577500D02*
X13669500Y-12677500D01*
X13669500Y-12577500D02*
X13569500Y-12677500D01*
X13823500Y-12323500D02*
X13923500Y-12423500D01*
X13923500Y-12323500D02*
X13823500Y-12423500D01*
X13823500Y-12577500D02*
X13923500Y-12677500D01*
X13923500Y-12577500D02*
X13823500Y-12677500D01*
X14077500Y-12323500D02*
X14177500Y-12423500D01*
X14177500Y-12323500D02*
X14077500Y-12423500D01*
X14077500Y-12577500D02*
X14177500Y-12677500D01*
X14177500Y-12577500D02*
X14077500Y-12677500D01*
X14331500Y-12323500D02*
X14431500Y-12423500D01*
X14431500Y-12323500D02*
X14331500Y-12423500D01*
X14331500Y-12577500D02*
X14431500Y-12677500D01*
X14431500Y-12577500D02*
X14331500Y-12677500D01*
X14585500Y-12323500D02*
X14685500Y-12423500D01*
X14685500Y-12323500D02*
X14585500Y-12423500D01*
X14585500Y-12577500D02*
X14685500Y-12677500D01*
X14685500Y-12577500D02*
X14585500Y-12677500D01*
X14839500Y-12323500D02*
X14939500Y-12423500D01*
X14939500Y-12323500D02*
X14839500Y-12423500D01*
X14839500Y-12577500D02*
X14939500Y-12677500D01*
X14939500Y-12577500D02*
X14839500Y-12677500D01*
X15093500Y-12323500D02*
X15193500Y-12423500D01*
X15193500Y-12323500D02*
X15093500Y-12423500D01*
X15093500Y-12577500D02*
X15193500Y-12677500D01*
X15193500Y-12577500D02*
X15093500Y-12677500D01*
X15347500Y-12323500D02*
X15447500Y-12423500D01*
X15447500Y-12323500D02*
X15347500Y-12423500D01*
X15347500Y-12577500D02*
X15447500Y-12677500D01*
X15447500Y-12577500D02*
X15347500Y-12677500D01*
X15601500Y-12323500D02*
X15701500Y-12423500D01*
X15701500Y-12323500D02*
X15601500Y-12423500D01*
X15601500Y-12577500D02*
X15701500Y-12677500D01*
X15701500Y-12577500D02*
X15601500Y-12677500D01*
X15855500Y-12323500D02*
X15955500Y-12423500D01*
X15955500Y-12323500D02*
X15855500Y-12423500D01*
X15855500Y-12577500D02*
X15955500Y-12677500D01*
X15955500Y-12577500D02*
X15855500Y-12677500D01*
X16109500Y-12323500D02*
X16209500Y-12423500D01*
X16209500Y-12323500D02*
X16109500Y-12423500D01*
X16109500Y-12577500D02*
X16209500Y-12677500D01*
X16209500Y-12577500D02*
X16109500Y-12677500D01*
X16363500Y-12323500D02*
X16463500Y-12423500D01*
X16463500Y-12323500D02*
X16363500Y-12423500D01*
X16363500Y-12577500D02*
X16463500Y-12677500D01*
X16463500Y-12577500D02*
X16363500Y-12677500D01*
D11*
X10255777Y-13316484D02*
X10255777Y-13116484D01*
X10255777Y-13116484D02*
X10303396Y-13116484D01*
X10303396Y-13116484D02*
X10331967Y-13126008D01*
X10331967Y-13126008D02*
X10351015Y-13145055D01*
X10351015Y-13145055D02*
X10360539Y-13164103D01*
X10360539Y-13164103D02*
X10370063Y-13202198D01*
X10370063Y-13202198D02*
X10370063Y-13230769D01*
X10370063Y-13230769D02*
X10360539Y-13268865D01*
X10360539Y-13268865D02*
X10351015Y-13287912D01*
X10351015Y-13287912D02*
X10331967Y-13306960D01*
X10331967Y-13306960D02*
X10303396Y-13316484D01*
X10303396Y-13316484D02*
X10255777Y-13316484D01*
X10455777Y-13316484D02*
X10455777Y-13183150D01*
X10455777Y-13221246D02*
X10465301Y-13202198D01*
X10465301Y-13202198D02*
X10474824Y-13192674D01*
X10474824Y-13192674D02*
X10493872Y-13183150D01*
X10493872Y-13183150D02*
X10512920Y-13183150D01*
X10579586Y-13316484D02*
X10579586Y-13183150D01*
X10579586Y-13116484D02*
X10570063Y-13126008D01*
X10570063Y-13126008D02*
X10579586Y-13135531D01*
X10579586Y-13135531D02*
X10589110Y-13126008D01*
X10589110Y-13126008D02*
X10579586Y-13116484D01*
X10579586Y-13116484D02*
X10579586Y-13135531D01*
X10703396Y-13316484D02*
X10684348Y-13306960D01*
X10684348Y-13306960D02*
X10674824Y-13287912D01*
X10674824Y-13287912D02*
X10674824Y-13116484D01*
X10808158Y-13316484D02*
X10789110Y-13306960D01*
X10789110Y-13306960D02*
X10779586Y-13287912D01*
X10779586Y-13287912D02*
X10779586Y-13116484D01*
X11036729Y-13316484D02*
X11036729Y-13116484D01*
X11036729Y-13116484D02*
X11103396Y-13259341D01*
X11103396Y-13259341D02*
X11170063Y-13116484D01*
X11170063Y-13116484D02*
X11170063Y-13316484D01*
X11351015Y-13316484D02*
X11351015Y-13211722D01*
X11351015Y-13211722D02*
X11341491Y-13192674D01*
X11341491Y-13192674D02*
X11322443Y-13183150D01*
X11322443Y-13183150D02*
X11284348Y-13183150D01*
X11284348Y-13183150D02*
X11265301Y-13192674D01*
X11351015Y-13306960D02*
X11331967Y-13316484D01*
X11331967Y-13316484D02*
X11284348Y-13316484D01*
X11284348Y-13316484D02*
X11265301Y-13306960D01*
X11265301Y-13306960D02*
X11255777Y-13287912D01*
X11255777Y-13287912D02*
X11255777Y-13268865D01*
X11255777Y-13268865D02*
X11265301Y-13249817D01*
X11265301Y-13249817D02*
X11284348Y-13240293D01*
X11284348Y-13240293D02*
X11331967Y-13240293D01*
X11331967Y-13240293D02*
X11351015Y-13230769D01*
X11446253Y-13183150D02*
X11446253Y-13383150D01*
X11446253Y-13192674D02*
X11465301Y-13183150D01*
X11465301Y-13183150D02*
X11503396Y-13183150D01*
X11503396Y-13183150D02*
X11522443Y-13192674D01*
X11522443Y-13192674D02*
X11531967Y-13202198D01*
X11531967Y-13202198D02*
X11541491Y-13221246D01*
X11541491Y-13221246D02*
X11541491Y-13278388D01*
X11541491Y-13278388D02*
X11531967Y-13297436D01*
X11531967Y-13297436D02*
X11522443Y-13306960D01*
X11522443Y-13306960D02*
X11503396Y-13316484D01*
X11503396Y-13316484D02*
X11465301Y-13316484D01*
X11465301Y-13316484D02*
X11446253Y-13306960D01*
X11627205Y-13297436D02*
X11636729Y-13306960D01*
X11636729Y-13306960D02*
X11627205Y-13316484D01*
X11627205Y-13316484D02*
X11617682Y-13306960D01*
X11617682Y-13306960D02*
X11627205Y-13297436D01*
X11627205Y-13297436D02*
X11627205Y-13316484D01*
X11627205Y-13192674D02*
X11636729Y-13202198D01*
X11636729Y-13202198D02*
X11627205Y-13211722D01*
X11627205Y-13211722D02*
X11617682Y-13202198D01*
X11617682Y-13202198D02*
X11627205Y-13192674D01*
X11627205Y-13192674D02*
X11627205Y-13211722D01*
D10*
X9895000Y-13595000D02*
X9995000Y-13695000D01*
X9995000Y-13595000D02*
X9895000Y-13695000D01*
D11*
X10360539Y-13736484D02*
X10246253Y-13736484D01*
X10303396Y-13736484D02*
X10303396Y-13536484D01*
X10303396Y-13536484D02*
X10284348Y-13565055D01*
X10284348Y-13565055D02*
X10265301Y-13584103D01*
X10265301Y-13584103D02*
X10246253Y-13593627D01*
X10446253Y-13717436D02*
X10455777Y-13726960D01*
X10455777Y-13726960D02*
X10446253Y-13736484D01*
X10446253Y-13736484D02*
X10436729Y-13726960D01*
X10436729Y-13726960D02*
X10446253Y-13717436D01*
X10446253Y-13717436D02*
X10446253Y-13736484D01*
X10579586Y-13536484D02*
X10598634Y-13536484D01*
X10598634Y-13536484D02*
X10617682Y-13546008D01*
X10617682Y-13546008D02*
X10627205Y-13555531D01*
X10627205Y-13555531D02*
X10636729Y-13574579D01*
X10636729Y-13574579D02*
X10646253Y-13612674D01*
X10646253Y-13612674D02*
X10646253Y-13660293D01*
X10646253Y-13660293D02*
X10636729Y-13698388D01*
X10636729Y-13698388D02*
X10627205Y-13717436D01*
X10627205Y-13717436D02*
X10617682Y-13726960D01*
X10617682Y-13726960D02*
X10598634Y-13736484D01*
X10598634Y-13736484D02*
X10579586Y-13736484D01*
X10579586Y-13736484D02*
X10560539Y-13726960D01*
X10560539Y-13726960D02*
X10551015Y-13717436D01*
X10551015Y-13717436D02*
X10541491Y-13698388D01*
X10541491Y-13698388D02*
X10531967Y-13660293D01*
X10531967Y-13660293D02*
X10531967Y-13612674D01*
X10531967Y-13612674D02*
X10541491Y-13574579D01*
X10541491Y-13574579D02*
X10551015Y-13555531D01*
X10551015Y-13555531D02*
X10560539Y-13546008D01*
X10560539Y-13546008D02*
X10579586Y-13536484D01*
X10770063Y-13536484D02*
X10789110Y-13536484D01*
X10789110Y-13536484D02*
X10808158Y-13546008D01*
X10808158Y-13546008D02*
X10817682Y-13555531D01*
X10817682Y-13555531D02*
X10827205Y-13574579D01*
X10827205Y-13574579D02*
X10836729Y-13612674D01*
X10836729Y-13612674D02*
X10836729Y-13660293D01*
X10836729Y-13660293D02*
X10827205Y-13698388D01*
X10827205Y-13698388D02*
X10817682Y-13717436D01*
X10817682Y-13717436D02*
X10808158Y-13726960D01*
X10808158Y-13726960D02*
X10789110Y-13736484D01*
X10789110Y-13736484D02*
X10770063Y-13736484D01*
X10770063Y-13736484D02*
X10751015Y-13726960D01*
X10751015Y-13726960D02*
X10741491Y-13717436D01*
X10741491Y-13717436D02*
X10731967Y-13698388D01*
X10731967Y-13698388D02*
X10722444Y-13660293D01*
X10722444Y-13660293D02*
X10722444Y-13612674D01*
X10722444Y-13612674D02*
X10731967Y-13574579D01*
X10731967Y-13574579D02*
X10741491Y-13555531D01*
X10741491Y-13555531D02*
X10751015Y-13546008D01*
X10751015Y-13546008D02*
X10770063Y-13536484D01*
X10960539Y-13536484D02*
X10979586Y-13536484D01*
X10979586Y-13536484D02*
X10998634Y-13546008D01*
X10998634Y-13546008D02*
X11008158Y-13555531D01*
X11008158Y-13555531D02*
X11017682Y-13574579D01*
X11017682Y-13574579D02*
X11027205Y-13612674D01*
X11027205Y-13612674D02*
X11027205Y-13660293D01*
X11027205Y-13660293D02*
X11017682Y-13698388D01*
X11017682Y-13698388D02*
X11008158Y-13717436D01*
X11008158Y-13717436D02*
X10998634Y-13726960D01*
X10998634Y-13726960D02*
X10979586Y-13736484D01*
X10979586Y-13736484D02*
X10960539Y-13736484D01*
X10960539Y-13736484D02*
X10941491Y-13726960D01*
X10941491Y-13726960D02*
X10931967Y-13717436D01*
X10931967Y-13717436D02*
X10922444Y-13698388D01*
X10922444Y-13698388D02*
X10912920Y-13660293D01*
X10912920Y-13660293D02*
X10912920Y-13612674D01*
X10912920Y-13612674D02*
X10922444Y-13574579D01*
X10922444Y-13574579D02*
X10931967Y-13555531D01*
X10931967Y-13555531D02*
X10941491Y-13546008D01*
X10941491Y-13546008D02*
X10960539Y-13536484D01*
X11112920Y-13736484D02*
X11112920Y-13603150D01*
X11112920Y-13622198D02*
X11122444Y-13612674D01*
X11122444Y-13612674D02*
X11141491Y-13603150D01*
X11141491Y-13603150D02*
X11170063Y-13603150D01*
X11170063Y-13603150D02*
X11189110Y-13612674D01*
X11189110Y-13612674D02*
X11198634Y-13631722D01*
X11198634Y-13631722D02*
X11198634Y-13736484D01*
X11198634Y-13631722D02*
X11208158Y-13612674D01*
X11208158Y-13612674D02*
X11227205Y-13603150D01*
X11227205Y-13603150D02*
X11255777Y-13603150D01*
X11255777Y-13603150D02*
X11274824Y-13612674D01*
X11274824Y-13612674D02*
X11284348Y-13631722D01*
X11284348Y-13631722D02*
X11284348Y-13736484D01*
X11379586Y-13736484D02*
X11379586Y-13603150D01*
X11379586Y-13622198D02*
X11389110Y-13612674D01*
X11389110Y-13612674D02*
X11408158Y-13603150D01*
X11408158Y-13603150D02*
X11436729Y-13603150D01*
X11436729Y-13603150D02*
X11455777Y-13612674D01*
X11455777Y-13612674D02*
X11465301Y-13631722D01*
X11465301Y-13631722D02*
X11465301Y-13736484D01*
X11465301Y-13631722D02*
X11474824Y-13612674D01*
X11474824Y-13612674D02*
X11493872Y-13603150D01*
X11493872Y-13603150D02*
X11522443Y-13603150D01*
X11522443Y-13603150D02*
X11541491Y-13612674D01*
X11541491Y-13612674D02*
X11551015Y-13631722D01*
X11551015Y-13631722D02*
X11551015Y-13736484D01*
X11941491Y-13526960D02*
X11770063Y-13784103D01*
X12198634Y-13536484D02*
X12217682Y-13536484D01*
X12217682Y-13536484D02*
X12236729Y-13546008D01*
X12236729Y-13546008D02*
X12246253Y-13555531D01*
X12246253Y-13555531D02*
X12255777Y-13574579D01*
X12255777Y-13574579D02*
X12265301Y-13612674D01*
X12265301Y-13612674D02*
X12265301Y-13660293D01*
X12265301Y-13660293D02*
X12255777Y-13698388D01*
X12255777Y-13698388D02*
X12246253Y-13717436D01*
X12246253Y-13717436D02*
X12236729Y-13726960D01*
X12236729Y-13726960D02*
X12217682Y-13736484D01*
X12217682Y-13736484D02*
X12198634Y-13736484D01*
X12198634Y-13736484D02*
X12179586Y-13726960D01*
X12179586Y-13726960D02*
X12170063Y-13717436D01*
X12170063Y-13717436D02*
X12160539Y-13698388D01*
X12160539Y-13698388D02*
X12151015Y-13660293D01*
X12151015Y-13660293D02*
X12151015Y-13612674D01*
X12151015Y-13612674D02*
X12160539Y-13574579D01*
X12160539Y-13574579D02*
X12170063Y-13555531D01*
X12170063Y-13555531D02*
X12179586Y-13546008D01*
X12179586Y-13546008D02*
X12198634Y-13536484D01*
X12351015Y-13717436D02*
X12360539Y-13726960D01*
X12360539Y-13726960D02*
X12351015Y-13736484D01*
X12351015Y-13736484D02*
X12341491Y-13726960D01*
X12341491Y-13726960D02*
X12351015Y-13717436D01*
X12351015Y-13717436D02*
X12351015Y-13736484D01*
X12484348Y-13536484D02*
X12503396Y-13536484D01*
X12503396Y-13536484D02*
X12522444Y-13546008D01*
X12522444Y-13546008D02*
X12531967Y-13555531D01*
X12531967Y-13555531D02*
X12541491Y-13574579D01*
X12541491Y-13574579D02*
X12551015Y-13612674D01*
X12551015Y-13612674D02*
X12551015Y-13660293D01*
X12551015Y-13660293D02*
X12541491Y-13698388D01*
X12541491Y-13698388D02*
X12531967Y-13717436D01*
X12531967Y-13717436D02*
X12522444Y-13726960D01*
X12522444Y-13726960D02*
X12503396Y-13736484D01*
X12503396Y-13736484D02*
X12484348Y-13736484D01*
X12484348Y-13736484D02*
X12465301Y-13726960D01*
X12465301Y-13726960D02*
X12455777Y-13717436D01*
X12455777Y-13717436D02*
X12446253Y-13698388D01*
X12446253Y-13698388D02*
X12436729Y-13660293D01*
X12436729Y-13660293D02*
X12436729Y-13612674D01*
X12436729Y-13612674D02*
X12446253Y-13574579D01*
X12446253Y-13574579D02*
X12455777Y-13555531D01*
X12455777Y-13555531D02*
X12465301Y-13546008D01*
X12465301Y-13546008D02*
X12484348Y-13536484D01*
X12617682Y-13536484D02*
X12741491Y-13536484D01*
X12741491Y-13536484D02*
X12674825Y-13612674D01*
X12674825Y-13612674D02*
X12703396Y-13612674D01*
X12703396Y-13612674D02*
X12722444Y-13622198D01*
X12722444Y-13622198D02*
X12731967Y-13631722D01*
X12731967Y-13631722D02*
X12741491Y-13650769D01*
X12741491Y-13650769D02*
X12741491Y-13698388D01*
X12741491Y-13698388D02*
X12731967Y-13717436D01*
X12731967Y-13717436D02*
X12722444Y-13726960D01*
X12722444Y-13726960D02*
X12703396Y-13736484D01*
X12703396Y-13736484D02*
X12646253Y-13736484D01*
X12646253Y-13736484D02*
X12627206Y-13726960D01*
X12627206Y-13726960D02*
X12617682Y-13717436D01*
X12836729Y-13736484D02*
X12874825Y-13736484D01*
X12874825Y-13736484D02*
X12893872Y-13726960D01*
X12893872Y-13726960D02*
X12903396Y-13717436D01*
X12903396Y-13717436D02*
X12922444Y-13688865D01*
X12922444Y-13688865D02*
X12931967Y-13650769D01*
X12931967Y-13650769D02*
X12931967Y-13574579D01*
X12931967Y-13574579D02*
X12922444Y-13555531D01*
X12922444Y-13555531D02*
X12912920Y-13546008D01*
X12912920Y-13546008D02*
X12893872Y-13536484D01*
X12893872Y-13536484D02*
X12855777Y-13536484D01*
X12855777Y-13536484D02*
X12836729Y-13546008D01*
X12836729Y-13546008D02*
X12827206Y-13555531D01*
X12827206Y-13555531D02*
X12817682Y-13574579D01*
X12817682Y-13574579D02*
X12817682Y-13622198D01*
X12817682Y-13622198D02*
X12827206Y-13641246D01*
X12827206Y-13641246D02*
X12836729Y-13650769D01*
X12836729Y-13650769D02*
X12855777Y-13660293D01*
X12855777Y-13660293D02*
X12893872Y-13660293D01*
X12893872Y-13660293D02*
X12912920Y-13650769D01*
X12912920Y-13650769D02*
X12922444Y-13641246D01*
X12922444Y-13641246D02*
X12931967Y-13622198D01*
X13103396Y-13603150D02*
X13103396Y-13736484D01*
X13055777Y-13526960D02*
X13008158Y-13669817D01*
X13008158Y-13669817D02*
X13131967Y-13669817D01*
X13198634Y-13536484D02*
X13198634Y-13574579D01*
X13274825Y-13536484D02*
X13274825Y-13574579D01*
X13570063Y-13812674D02*
X13560539Y-13803150D01*
X13560539Y-13803150D02*
X13541491Y-13774579D01*
X13541491Y-13774579D02*
X13531968Y-13755531D01*
X13531968Y-13755531D02*
X13522444Y-13726960D01*
X13522444Y-13726960D02*
X13512920Y-13679341D01*
X13512920Y-13679341D02*
X13512920Y-13641246D01*
X13512920Y-13641246D02*
X13522444Y-13593627D01*
X13522444Y-13593627D02*
X13531968Y-13565055D01*
X13531968Y-13565055D02*
X13541491Y-13546008D01*
X13541491Y-13546008D02*
X13560539Y-13517436D01*
X13560539Y-13517436D02*
X13570063Y-13507912D01*
X13731968Y-13603150D02*
X13731968Y-13736484D01*
X13684348Y-13526960D02*
X13636729Y-13669817D01*
X13636729Y-13669817D02*
X13760539Y-13669817D01*
X13874825Y-13536484D02*
X13893872Y-13536484D01*
X13893872Y-13536484D02*
X13912920Y-13546008D01*
X13912920Y-13546008D02*
X13922444Y-13555531D01*
X13922444Y-13555531D02*
X13931968Y-13574579D01*
X13931968Y-13574579D02*
X13941491Y-13612674D01*
X13941491Y-13612674D02*
X13941491Y-13660293D01*
X13941491Y-13660293D02*
X13931968Y-13698388D01*
X13931968Y-13698388D02*
X13922444Y-13717436D01*
X13922444Y-13717436D02*
X13912920Y-13726960D01*
X13912920Y-13726960D02*
X13893872Y-13736484D01*
X13893872Y-13736484D02*
X13874825Y-13736484D01*
X13874825Y-13736484D02*
X13855777Y-13726960D01*
X13855777Y-13726960D02*
X13846253Y-13717436D01*
X13846253Y-13717436D02*
X13836729Y-13698388D01*
X13836729Y-13698388D02*
X13827206Y-13660293D01*
X13827206Y-13660293D02*
X13827206Y-13612674D01*
X13827206Y-13612674D02*
X13836729Y-13574579D01*
X13836729Y-13574579D02*
X13846253Y-13555531D01*
X13846253Y-13555531D02*
X13855777Y-13546008D01*
X13855777Y-13546008D02*
X13874825Y-13536484D01*
X14179587Y-13736484D02*
X14179587Y-13536484D01*
X14265301Y-13736484D02*
X14265301Y-13631722D01*
X14265301Y-13631722D02*
X14255777Y-13612674D01*
X14255777Y-13612674D02*
X14236730Y-13603150D01*
X14236730Y-13603150D02*
X14208158Y-13603150D01*
X14208158Y-13603150D02*
X14189110Y-13612674D01*
X14189110Y-13612674D02*
X14179587Y-13622198D01*
X14389110Y-13736484D02*
X14370063Y-13726960D01*
X14370063Y-13726960D02*
X14360539Y-13717436D01*
X14360539Y-13717436D02*
X14351015Y-13698388D01*
X14351015Y-13698388D02*
X14351015Y-13641246D01*
X14351015Y-13641246D02*
X14360539Y-13622198D01*
X14360539Y-13622198D02*
X14370063Y-13612674D01*
X14370063Y-13612674D02*
X14389110Y-13603150D01*
X14389110Y-13603150D02*
X14417682Y-13603150D01*
X14417682Y-13603150D02*
X14436730Y-13612674D01*
X14436730Y-13612674D02*
X14446253Y-13622198D01*
X14446253Y-13622198D02*
X14455777Y-13641246D01*
X14455777Y-13641246D02*
X14455777Y-13698388D01*
X14455777Y-13698388D02*
X14446253Y-13717436D01*
X14446253Y-13717436D02*
X14436730Y-13726960D01*
X14436730Y-13726960D02*
X14417682Y-13736484D01*
X14417682Y-13736484D02*
X14389110Y-13736484D01*
X14570063Y-13736484D02*
X14551015Y-13726960D01*
X14551015Y-13726960D02*
X14541491Y-13707912D01*
X14541491Y-13707912D02*
X14541491Y-13536484D01*
X14722444Y-13726960D02*
X14703396Y-13736484D01*
X14703396Y-13736484D02*
X14665301Y-13736484D01*
X14665301Y-13736484D02*
X14646253Y-13726960D01*
X14646253Y-13726960D02*
X14636730Y-13707912D01*
X14636730Y-13707912D02*
X14636730Y-13631722D01*
X14636730Y-13631722D02*
X14646253Y-13612674D01*
X14646253Y-13612674D02*
X14665301Y-13603150D01*
X14665301Y-13603150D02*
X14703396Y-13603150D01*
X14703396Y-13603150D02*
X14722444Y-13612674D01*
X14722444Y-13612674D02*
X14731968Y-13631722D01*
X14731968Y-13631722D02*
X14731968Y-13650769D01*
X14731968Y-13650769D02*
X14636730Y-13669817D01*
X14808158Y-13726960D02*
X14827206Y-13736484D01*
X14827206Y-13736484D02*
X14865301Y-13736484D01*
X14865301Y-13736484D02*
X14884349Y-13726960D01*
X14884349Y-13726960D02*
X14893872Y-13707912D01*
X14893872Y-13707912D02*
X14893872Y-13698388D01*
X14893872Y-13698388D02*
X14884349Y-13679341D01*
X14884349Y-13679341D02*
X14865301Y-13669817D01*
X14865301Y-13669817D02*
X14836730Y-13669817D01*
X14836730Y-13669817D02*
X14817682Y-13660293D01*
X14817682Y-13660293D02*
X14808158Y-13641246D01*
X14808158Y-13641246D02*
X14808158Y-13631722D01*
X14808158Y-13631722D02*
X14817682Y-13612674D01*
X14817682Y-13612674D02*
X14836730Y-13603150D01*
X14836730Y-13603150D02*
X14865301Y-13603150D01*
X14865301Y-13603150D02*
X14884349Y-13612674D01*
X14960539Y-13812674D02*
X14970063Y-13803150D01*
X14970063Y-13803150D02*
X14989111Y-13774579D01*
X14989111Y-13774579D02*
X14998634Y-13755531D01*
X14998634Y-13755531D02*
X15008158Y-13726960D01*
X15008158Y-13726960D02*
X15017682Y-13679341D01*
X15017682Y-13679341D02*
X15017682Y-13641246D01*
X15017682Y-13641246D02*
X15008158Y-13593627D01*
X15008158Y-13593627D02*
X14998634Y-13565055D01*
X14998634Y-13565055D02*
X14989111Y-13546008D01*
X14989111Y-13546008D02*
X14970063Y-13517436D01*
X14970063Y-13517436D02*
X14960539Y-13507912D01*
M02*
