%TF.GenerationSoftware,KiCad,Pcbnew,7.0.7*%
%TF.CreationDate,2023-09-14T11:38:14+02:00*%
%TF.ProjectId,SensorCube Template,53656e73-6f72-4437-9562-652054656d70,rev?*%
%TF.SameCoordinates,Original*%
%TF.FileFunction,Copper,L1,Top*%
%TF.FilePolarity,Positive*%
%FSLAX46Y46*%
G04 Gerber Fmt 4.6, Leading zero omitted, Abs format (unit mm)*
G04 Created by KiCad (PCBNEW 7.0.7) date 2023-09-14 11:38:14*
%MOMM*%
%LPD*%
G01*
G04 APERTURE LIST*
%TA.AperFunction,ComponentPad*%
%ADD10R,1.700000X1.700000*%
%TD*%
%TA.AperFunction,ComponentPad*%
%ADD11O,1.700000X1.700000*%
%TD*%
G04 APERTURE END LIST*
D10*
%TO.P,J1,1,Pin_1*%
%TO.N,unconnected-(J1-Pin_1-Pad1)*%
X115875000Y-126275000D03*
D11*
%TO.P,J1,2,Pin_2*%
%TO.N,unconnected-(J1-Pin_2-Pad2)*%
X115875000Y-123735000D03*
%TO.P,J1,3,Pin_3*%
%TO.N,unconnected-(J1-Pin_3-Pad3)*%
X118415000Y-126275000D03*
%TO.P,J1,4,Pin_4*%
%TO.N,unconnected-(J1-Pin_4-Pad4)*%
X118415000Y-123735000D03*
%TO.P,J1,5,Pin_5*%
%TO.N,unconnected-(J1-Pin_5-Pad5)*%
X120955000Y-126275000D03*
%TO.P,J1,6,Pin_6*%
%TO.N,unconnected-(J1-Pin_6-Pad6)*%
X120955000Y-123735000D03*
%TO.P,J1,7,Pin_7*%
%TO.N,unconnected-(J1-Pin_7-Pad7)*%
X123495000Y-126275000D03*
%TO.P,J1,8,Pin_8*%
%TO.N,unconnected-(J1-Pin_8-Pad8)*%
X123495000Y-123735000D03*
%TO.P,J1,9,Pin_9*%
%TO.N,unconnected-(J1-Pin_9-Pad9)*%
X126035000Y-126275000D03*
%TO.P,J1,10,Pin_10*%
%TO.N,unconnected-(J1-Pin_10-Pad10)*%
X126035000Y-123735000D03*
%TO.P,J1,11,Pin_11*%
%TO.N,unconnected-(J1-Pin_11-Pad11)*%
X128575000Y-126275000D03*
%TO.P,J1,12,Pin_12*%
%TO.N,unconnected-(J1-Pin_12-Pad12)*%
X128575000Y-123735000D03*
%TO.P,J1,13,Pin_13*%
%TO.N,unconnected-(J1-Pin_13-Pad13)*%
X131115000Y-126275000D03*
%TO.P,J1,14,Pin_14*%
%TO.N,unconnected-(J1-Pin_14-Pad14)*%
X131115000Y-123735000D03*
%TO.P,J1,15,Pin_15*%
%TO.N,unconnected-(J1-Pin_15-Pad15)*%
X133655000Y-126275000D03*
%TO.P,J1,16,Pin_16*%
%TO.N,unconnected-(J1-Pin_16-Pad16)*%
X133655000Y-123735000D03*
%TO.P,J1,17,Pin_17*%
%TO.N,unconnected-(J1-Pin_17-Pad17)*%
X136195000Y-126275000D03*
%TO.P,J1,18,Pin_18*%
%TO.N,unconnected-(J1-Pin_18-Pad18)*%
X136195000Y-123735000D03*
%TO.P,J1,19,Pin_19*%
%TO.N,unconnected-(J1-Pin_19-Pad19)*%
X138735000Y-126275000D03*
%TO.P,J1,20,Pin_20*%
%TO.N,unconnected-(J1-Pin_20-Pad20)*%
X138735000Y-123735000D03*
%TO.P,J1,21,Pin_21*%
%TO.N,unconnected-(J1-Pin_21-Pad21)*%
X141275000Y-126275000D03*
%TO.P,J1,22,Pin_22*%
%TO.N,unconnected-(J1-Pin_22-Pad22)*%
X141275000Y-123735000D03*
%TO.P,J1,23,Pin_23*%
%TO.N,unconnected-(J1-Pin_23-Pad23)*%
X143815000Y-126275000D03*
%TO.P,J1,24,Pin_24*%
%TO.N,unconnected-(J1-Pin_24-Pad24)*%
X143815000Y-123735000D03*
%TO.P,J1,25,Pin_25*%
%TO.N,unconnected-(J1-Pin_25-Pad25)*%
X146355000Y-126275000D03*
%TO.P,J1,26,Pin_26*%
%TO.N,unconnected-(J1-Pin_26-Pad26)*%
X146355000Y-123735000D03*
%TO.P,J1,27,Pin_27*%
%TO.N,unconnected-(J1-Pin_27-Pad27)*%
X148895000Y-126275000D03*
%TO.P,J1,28,Pin_28*%
%TO.N,unconnected-(J1-Pin_28-Pad28)*%
X148895000Y-123735000D03*
%TO.P,J1,29,Pin_29*%
%TO.N,unconnected-(J1-Pin_29-Pad29)*%
X151435000Y-126275000D03*
%TO.P,J1,30,Pin_30*%
%TO.N,unconnected-(J1-Pin_30-Pad30)*%
X151435000Y-123735000D03*
%TO.P,J1,31,Pin_31*%
%TO.N,unconnected-(J1-Pin_31-Pad31)*%
X153975000Y-126275000D03*
%TO.P,J1,32,Pin_32*%
%TO.N,unconnected-(J1-Pin_32-Pad32)*%
X153975000Y-123735000D03*
%TO.P,J1,33,Pin_33*%
%TO.N,unconnected-(J1-Pin_33-Pad33)*%
X156515000Y-126275000D03*
%TO.P,J1,34,Pin_34*%
%TO.N,unconnected-(J1-Pin_34-Pad34)*%
X156515000Y-123735000D03*
%TO.P,J1,35,Pin_35*%
%TO.N,unconnected-(J1-Pin_35-Pad35)*%
X159055000Y-126275000D03*
%TO.P,J1,36,Pin_36*%
%TO.N,unconnected-(J1-Pin_36-Pad36)*%
X159055000Y-123735000D03*
%TO.P,J1,37,Pin_37*%
%TO.N,unconnected-(J1-Pin_37-Pad37)*%
X161595000Y-126275000D03*
%TO.P,J1,38,Pin_38*%
%TO.N,GND*%
X161595000Y-123735000D03*
%TO.P,J1,39,Pin_39*%
%TO.N,unconnected-(J1-Pin_39-Pad39)*%
X164135000Y-126275000D03*
%TO.P,J1,40,Pin_40*%
%TO.N,VCC*%
X164135000Y-123735000D03*
%TD*%
%TA.AperFunction,Conductor*%
%TO.N,VCC*%
G36*
X179442539Y-50520185D02*
G01*
X179488294Y-50572989D01*
X179499500Y-50624500D01*
X179499500Y-129375500D01*
X179479815Y-129442539D01*
X179427011Y-129488294D01*
X179375500Y-129499500D01*
X100624500Y-129499500D01*
X100557461Y-129479815D01*
X100511706Y-129427011D01*
X100500500Y-129375500D01*
X100500500Y-125000000D01*
X101394559Y-125000000D01*
X101414310Y-125376872D01*
X101473346Y-125749607D01*
X101473347Y-125749614D01*
X101571023Y-126114147D01*
X101706267Y-126466468D01*
X101877599Y-126802724D01*
X102083135Y-127119223D01*
X102240456Y-127313498D01*
X102320635Y-127412511D01*
X102587489Y-127679365D01*
X102587493Y-127679368D01*
X102880776Y-127916864D01*
X103197275Y-128122400D01*
X103197280Y-128122403D01*
X103533535Y-128293734D01*
X103885857Y-128428978D01*
X104250387Y-128526653D01*
X104623129Y-128585690D01*
X104905720Y-128600500D01*
X105094280Y-128600500D01*
X105376871Y-128585690D01*
X105749613Y-128526653D01*
X106114143Y-128428978D01*
X106466465Y-128293734D01*
X106802720Y-128122403D01*
X107119225Y-127916863D01*
X107412511Y-127679365D01*
X107679365Y-127412511D01*
X107916863Y-127119225D01*
X108122403Y-126802721D01*
X108293734Y-126466465D01*
X108428978Y-126114143D01*
X108526653Y-125749613D01*
X108585690Y-125376871D01*
X108605441Y-125000000D01*
X108585690Y-124623129D01*
X108526653Y-124250387D01*
X108428978Y-123885857D01*
X108371069Y-123735000D01*
X114519341Y-123735000D01*
X114539936Y-123970403D01*
X114539938Y-123970413D01*
X114601094Y-124198655D01*
X114601096Y-124198659D01*
X114601097Y-124198663D01*
X114681004Y-124370023D01*
X114700965Y-124412830D01*
X114700967Y-124412834D01*
X114809281Y-124567521D01*
X114836504Y-124606400D01*
X114836506Y-124606402D01*
X114958430Y-124728326D01*
X114991915Y-124789649D01*
X114986931Y-124859341D01*
X114945059Y-124915274D01*
X114914083Y-124932189D01*
X114782669Y-124981203D01*
X114782664Y-124981206D01*
X114667455Y-125067452D01*
X114667452Y-125067455D01*
X114581206Y-125182664D01*
X114581202Y-125182671D01*
X114530908Y-125317517D01*
X114524501Y-125377116D01*
X114524500Y-125377135D01*
X114524500Y-127172870D01*
X114524501Y-127172876D01*
X114530908Y-127232483D01*
X114581202Y-127367328D01*
X114581206Y-127367335D01*
X114667452Y-127482544D01*
X114667455Y-127482547D01*
X114782664Y-127568793D01*
X114782671Y-127568797D01*
X114917517Y-127619091D01*
X114917516Y-127619091D01*
X114924444Y-127619835D01*
X114977127Y-127625500D01*
X116772872Y-127625499D01*
X116832483Y-127619091D01*
X116967331Y-127568796D01*
X117082546Y-127482546D01*
X117168796Y-127367331D01*
X117217810Y-127235916D01*
X117259681Y-127179984D01*
X117325145Y-127155566D01*
X117393418Y-127170417D01*
X117421672Y-127191568D01*
X117543599Y-127313495D01*
X117640384Y-127381264D01*
X117737165Y-127449032D01*
X117737167Y-127449033D01*
X117737170Y-127449035D01*
X117951337Y-127548903D01*
X118179592Y-127610063D01*
X118356034Y-127625500D01*
X118414999Y-127630659D01*
X118415000Y-127630659D01*
X118415001Y-127630659D01*
X118473966Y-127625500D01*
X118650408Y-127610063D01*
X118878663Y-127548903D01*
X119092830Y-127449035D01*
X119286401Y-127313495D01*
X119453495Y-127146401D01*
X119583424Y-126960842D01*
X119638002Y-126917217D01*
X119707500Y-126910023D01*
X119769855Y-126941546D01*
X119786575Y-126960842D01*
X119916500Y-127146395D01*
X119916505Y-127146401D01*
X120083599Y-127313495D01*
X120180384Y-127381264D01*
X120277165Y-127449032D01*
X120277167Y-127449033D01*
X120277170Y-127449035D01*
X120491337Y-127548903D01*
X120719592Y-127610063D01*
X120896034Y-127625500D01*
X120954999Y-127630659D01*
X120955000Y-127630659D01*
X120955001Y-127630659D01*
X121013966Y-127625500D01*
X121190408Y-127610063D01*
X121418663Y-127548903D01*
X121632830Y-127449035D01*
X121826401Y-127313495D01*
X121993495Y-127146401D01*
X122123424Y-126960842D01*
X122178002Y-126917217D01*
X122247500Y-126910023D01*
X122309855Y-126941546D01*
X122326575Y-126960842D01*
X122456500Y-127146395D01*
X122456505Y-127146401D01*
X122623599Y-127313495D01*
X122720384Y-127381264D01*
X122817165Y-127449032D01*
X122817167Y-127449033D01*
X122817170Y-127449035D01*
X123031337Y-127548903D01*
X123259592Y-127610063D01*
X123436034Y-127625500D01*
X123494999Y-127630659D01*
X123495000Y-127630659D01*
X123495001Y-127630659D01*
X123553966Y-127625500D01*
X123730408Y-127610063D01*
X123958663Y-127548903D01*
X124172830Y-127449035D01*
X124366401Y-127313495D01*
X124533495Y-127146401D01*
X124663424Y-126960842D01*
X124718002Y-126917217D01*
X124787500Y-126910023D01*
X124849855Y-126941546D01*
X124866575Y-126960842D01*
X124996500Y-127146395D01*
X124996505Y-127146401D01*
X125163599Y-127313495D01*
X125260384Y-127381264D01*
X125357165Y-127449032D01*
X125357167Y-127449033D01*
X125357170Y-127449035D01*
X125571337Y-127548903D01*
X125799592Y-127610063D01*
X125976034Y-127625500D01*
X126034999Y-127630659D01*
X126035000Y-127630659D01*
X126035001Y-127630659D01*
X126093966Y-127625500D01*
X126270408Y-127610063D01*
X126498663Y-127548903D01*
X126712830Y-127449035D01*
X126906401Y-127313495D01*
X127073495Y-127146401D01*
X127203424Y-126960842D01*
X127258002Y-126917217D01*
X127327500Y-126910023D01*
X127389855Y-126941546D01*
X127406575Y-126960842D01*
X127536500Y-127146395D01*
X127536505Y-127146401D01*
X127703599Y-127313495D01*
X127800384Y-127381264D01*
X127897165Y-127449032D01*
X127897167Y-127449033D01*
X127897170Y-127449035D01*
X128111337Y-127548903D01*
X128339592Y-127610063D01*
X128516034Y-127625500D01*
X128574999Y-127630659D01*
X128575000Y-127630659D01*
X128575001Y-127630659D01*
X128633966Y-127625500D01*
X128810408Y-127610063D01*
X129038663Y-127548903D01*
X129252830Y-127449035D01*
X129446401Y-127313495D01*
X129613495Y-127146401D01*
X129743424Y-126960842D01*
X129798002Y-126917217D01*
X129867500Y-126910023D01*
X129929855Y-126941546D01*
X129946575Y-126960842D01*
X130076500Y-127146395D01*
X130076505Y-127146401D01*
X130243599Y-127313495D01*
X130340384Y-127381264D01*
X130437165Y-127449032D01*
X130437167Y-127449033D01*
X130437170Y-127449035D01*
X130651337Y-127548903D01*
X130879592Y-127610063D01*
X131056034Y-127625500D01*
X131114999Y-127630659D01*
X131115000Y-127630659D01*
X131115001Y-127630659D01*
X131173966Y-127625500D01*
X131350408Y-127610063D01*
X131578663Y-127548903D01*
X131792830Y-127449035D01*
X131986401Y-127313495D01*
X132153495Y-127146401D01*
X132283424Y-126960842D01*
X132338002Y-126917217D01*
X132407500Y-126910023D01*
X132469855Y-126941546D01*
X132486575Y-126960842D01*
X132616500Y-127146395D01*
X132616505Y-127146401D01*
X132783599Y-127313495D01*
X132880384Y-127381264D01*
X132977165Y-127449032D01*
X132977167Y-127449033D01*
X132977170Y-127449035D01*
X133191337Y-127548903D01*
X133419592Y-127610063D01*
X133596034Y-127625500D01*
X133654999Y-127630659D01*
X133655000Y-127630659D01*
X133655001Y-127630659D01*
X133713966Y-127625500D01*
X133890408Y-127610063D01*
X134118663Y-127548903D01*
X134332830Y-127449035D01*
X134526401Y-127313495D01*
X134693495Y-127146401D01*
X134823424Y-126960842D01*
X134878002Y-126917217D01*
X134947500Y-126910023D01*
X135009855Y-126941546D01*
X135026575Y-126960842D01*
X135156500Y-127146395D01*
X135156505Y-127146401D01*
X135323599Y-127313495D01*
X135420384Y-127381264D01*
X135517165Y-127449032D01*
X135517167Y-127449033D01*
X135517170Y-127449035D01*
X135731337Y-127548903D01*
X135959592Y-127610063D01*
X136136034Y-127625500D01*
X136194999Y-127630659D01*
X136195000Y-127630659D01*
X136195001Y-127630659D01*
X136253966Y-127625500D01*
X136430408Y-127610063D01*
X136658663Y-127548903D01*
X136872830Y-127449035D01*
X137066401Y-127313495D01*
X137233495Y-127146401D01*
X137363424Y-126960842D01*
X137418002Y-126917217D01*
X137487500Y-126910023D01*
X137549855Y-126941546D01*
X137566575Y-126960842D01*
X137696500Y-127146395D01*
X137696505Y-127146401D01*
X137863599Y-127313495D01*
X137960384Y-127381264D01*
X138057165Y-127449032D01*
X138057167Y-127449033D01*
X138057170Y-127449035D01*
X138271337Y-127548903D01*
X138499592Y-127610063D01*
X138676034Y-127625500D01*
X138734999Y-127630659D01*
X138735000Y-127630659D01*
X138735001Y-127630659D01*
X138793966Y-127625500D01*
X138970408Y-127610063D01*
X139198663Y-127548903D01*
X139412830Y-127449035D01*
X139606401Y-127313495D01*
X139773495Y-127146401D01*
X139903424Y-126960842D01*
X139958002Y-126917217D01*
X140027500Y-126910023D01*
X140089855Y-126941546D01*
X140106575Y-126960842D01*
X140236500Y-127146395D01*
X140236505Y-127146401D01*
X140403599Y-127313495D01*
X140500384Y-127381264D01*
X140597165Y-127449032D01*
X140597167Y-127449033D01*
X140597170Y-127449035D01*
X140811337Y-127548903D01*
X141039592Y-127610063D01*
X141216034Y-127625500D01*
X141274999Y-127630659D01*
X141275000Y-127630659D01*
X141275001Y-127630659D01*
X141333966Y-127625500D01*
X141510408Y-127610063D01*
X141738663Y-127548903D01*
X141952830Y-127449035D01*
X142146401Y-127313495D01*
X142313495Y-127146401D01*
X142443424Y-126960842D01*
X142498002Y-126917217D01*
X142567500Y-126910023D01*
X142629855Y-126941546D01*
X142646575Y-126960842D01*
X142776500Y-127146395D01*
X142776505Y-127146401D01*
X142943599Y-127313495D01*
X143040384Y-127381264D01*
X143137165Y-127449032D01*
X143137167Y-127449033D01*
X143137170Y-127449035D01*
X143351337Y-127548903D01*
X143579592Y-127610063D01*
X143756034Y-127625500D01*
X143814999Y-127630659D01*
X143815000Y-127630659D01*
X143815001Y-127630659D01*
X143873966Y-127625500D01*
X144050408Y-127610063D01*
X144278663Y-127548903D01*
X144492830Y-127449035D01*
X144686401Y-127313495D01*
X144853495Y-127146401D01*
X144983424Y-126960842D01*
X145038002Y-126917217D01*
X145107500Y-126910023D01*
X145169855Y-126941546D01*
X145186575Y-126960842D01*
X145316500Y-127146395D01*
X145316505Y-127146401D01*
X145483599Y-127313495D01*
X145580384Y-127381264D01*
X145677165Y-127449032D01*
X145677167Y-127449033D01*
X145677170Y-127449035D01*
X145891337Y-127548903D01*
X146119592Y-127610063D01*
X146296034Y-127625500D01*
X146354999Y-127630659D01*
X146355000Y-127630659D01*
X146355001Y-127630659D01*
X146413966Y-127625500D01*
X146590408Y-127610063D01*
X146818663Y-127548903D01*
X147032830Y-127449035D01*
X147226401Y-127313495D01*
X147393495Y-127146401D01*
X147523424Y-126960842D01*
X147578002Y-126917217D01*
X147647500Y-126910023D01*
X147709855Y-126941546D01*
X147726575Y-126960842D01*
X147856500Y-127146395D01*
X147856505Y-127146401D01*
X148023599Y-127313495D01*
X148120384Y-127381264D01*
X148217165Y-127449032D01*
X148217167Y-127449033D01*
X148217170Y-127449035D01*
X148431337Y-127548903D01*
X148659592Y-127610063D01*
X148836034Y-127625500D01*
X148894999Y-127630659D01*
X148895000Y-127630659D01*
X148895001Y-127630659D01*
X148953966Y-127625500D01*
X149130408Y-127610063D01*
X149358663Y-127548903D01*
X149572830Y-127449035D01*
X149766401Y-127313495D01*
X149933495Y-127146401D01*
X150063424Y-126960842D01*
X150118002Y-126917217D01*
X150187500Y-126910023D01*
X150249855Y-126941546D01*
X150266575Y-126960842D01*
X150396500Y-127146395D01*
X150396505Y-127146401D01*
X150563599Y-127313495D01*
X150660384Y-127381264D01*
X150757165Y-127449032D01*
X150757167Y-127449033D01*
X150757170Y-127449035D01*
X150971337Y-127548903D01*
X151199592Y-127610063D01*
X151376034Y-127625500D01*
X151434999Y-127630659D01*
X151435000Y-127630659D01*
X151435001Y-127630659D01*
X151493966Y-127625500D01*
X151670408Y-127610063D01*
X151898663Y-127548903D01*
X152112830Y-127449035D01*
X152306401Y-127313495D01*
X152473495Y-127146401D01*
X152603424Y-126960842D01*
X152658002Y-126917217D01*
X152727500Y-126910023D01*
X152789855Y-126941546D01*
X152806575Y-126960842D01*
X152936500Y-127146395D01*
X152936505Y-127146401D01*
X153103599Y-127313495D01*
X153200384Y-127381264D01*
X153297165Y-127449032D01*
X153297167Y-127449033D01*
X153297170Y-127449035D01*
X153511337Y-127548903D01*
X153739592Y-127610063D01*
X153916034Y-127625500D01*
X153974999Y-127630659D01*
X153975000Y-127630659D01*
X153975001Y-127630659D01*
X154033966Y-127625500D01*
X154210408Y-127610063D01*
X154438663Y-127548903D01*
X154652830Y-127449035D01*
X154846401Y-127313495D01*
X155013495Y-127146401D01*
X155143424Y-126960842D01*
X155198002Y-126917217D01*
X155267500Y-126910023D01*
X155329855Y-126941546D01*
X155346575Y-126960842D01*
X155476500Y-127146395D01*
X155476505Y-127146401D01*
X155643599Y-127313495D01*
X155740384Y-127381264D01*
X155837165Y-127449032D01*
X155837167Y-127449033D01*
X155837170Y-127449035D01*
X156051337Y-127548903D01*
X156279592Y-127610063D01*
X156456034Y-127625500D01*
X156514999Y-127630659D01*
X156515000Y-127630659D01*
X156515001Y-127630659D01*
X156573966Y-127625500D01*
X156750408Y-127610063D01*
X156978663Y-127548903D01*
X157192830Y-127449035D01*
X157386401Y-127313495D01*
X157553495Y-127146401D01*
X157683424Y-126960842D01*
X157738002Y-126917217D01*
X157807500Y-126910023D01*
X157869855Y-126941546D01*
X157886575Y-126960842D01*
X158016500Y-127146395D01*
X158016505Y-127146401D01*
X158183599Y-127313495D01*
X158280384Y-127381264D01*
X158377165Y-127449032D01*
X158377167Y-127449033D01*
X158377170Y-127449035D01*
X158591337Y-127548903D01*
X158819592Y-127610063D01*
X158996034Y-127625500D01*
X159054999Y-127630659D01*
X159055000Y-127630659D01*
X159055001Y-127630659D01*
X159113966Y-127625500D01*
X159290408Y-127610063D01*
X159518663Y-127548903D01*
X159732830Y-127449035D01*
X159926401Y-127313495D01*
X160093495Y-127146401D01*
X160223424Y-126960842D01*
X160278002Y-126917217D01*
X160347500Y-126910023D01*
X160409855Y-126941546D01*
X160426575Y-126960842D01*
X160556500Y-127146395D01*
X160556505Y-127146401D01*
X160723599Y-127313495D01*
X160820384Y-127381264D01*
X160917165Y-127449032D01*
X160917167Y-127449033D01*
X160917170Y-127449035D01*
X161131337Y-127548903D01*
X161359592Y-127610063D01*
X161536034Y-127625500D01*
X161594999Y-127630659D01*
X161595000Y-127630659D01*
X161595001Y-127630659D01*
X161653966Y-127625500D01*
X161830408Y-127610063D01*
X162058663Y-127548903D01*
X162272830Y-127449035D01*
X162466401Y-127313495D01*
X162633495Y-127146401D01*
X162763424Y-126960842D01*
X162818002Y-126917217D01*
X162887500Y-126910023D01*
X162949855Y-126941546D01*
X162966575Y-126960842D01*
X163096500Y-127146395D01*
X163096505Y-127146401D01*
X163263599Y-127313495D01*
X163360384Y-127381264D01*
X163457165Y-127449032D01*
X163457167Y-127449033D01*
X163457170Y-127449035D01*
X163671337Y-127548903D01*
X163899592Y-127610063D01*
X164076034Y-127625500D01*
X164134999Y-127630659D01*
X164135000Y-127630659D01*
X164135001Y-127630659D01*
X164193966Y-127625500D01*
X164370408Y-127610063D01*
X164598663Y-127548903D01*
X164812830Y-127449035D01*
X165006401Y-127313495D01*
X165173495Y-127146401D01*
X165309035Y-126952830D01*
X165408903Y-126738663D01*
X165470063Y-126510408D01*
X165490659Y-126275000D01*
X165470063Y-126039592D01*
X165408903Y-125811337D01*
X165309035Y-125597171D01*
X165303425Y-125589158D01*
X165173494Y-125403597D01*
X165006402Y-125236506D01*
X165006401Y-125236505D01*
X164820842Y-125106575D01*
X164820405Y-125106269D01*
X164776781Y-125051692D01*
X164771431Y-125000000D01*
X171394559Y-125000000D01*
X171414310Y-125376872D01*
X171473346Y-125749607D01*
X171473347Y-125749614D01*
X171571023Y-126114147D01*
X171706267Y-126466468D01*
X171877599Y-126802724D01*
X172083135Y-127119223D01*
X172240456Y-127313498D01*
X172320635Y-127412511D01*
X172587489Y-127679365D01*
X172587493Y-127679368D01*
X172880776Y-127916864D01*
X173197275Y-128122400D01*
X173197280Y-128122403D01*
X173533535Y-128293734D01*
X173885857Y-128428978D01*
X174250387Y-128526653D01*
X174623129Y-128585690D01*
X174905720Y-128600500D01*
X175094280Y-128600500D01*
X175376871Y-128585690D01*
X175749613Y-128526653D01*
X176114143Y-128428978D01*
X176466465Y-128293734D01*
X176802720Y-128122403D01*
X177119225Y-127916863D01*
X177412511Y-127679365D01*
X177679365Y-127412511D01*
X177916863Y-127119225D01*
X178122403Y-126802721D01*
X178293734Y-126466465D01*
X178428978Y-126114143D01*
X178526653Y-125749613D01*
X178585690Y-125376871D01*
X178605441Y-125000000D01*
X178585690Y-124623129D01*
X178526653Y-124250387D01*
X178428978Y-123885857D01*
X178293734Y-123533535D01*
X178122403Y-123197280D01*
X178073969Y-123122698D01*
X177916864Y-122880776D01*
X177679368Y-122587493D01*
X177679365Y-122587489D01*
X177412511Y-122320635D01*
X177119225Y-122083137D01*
X177119223Y-122083135D01*
X176802724Y-121877599D01*
X176466468Y-121706267D01*
X176114147Y-121571023D01*
X175749614Y-121473347D01*
X175749607Y-121473346D01*
X175376872Y-121414310D01*
X175094280Y-121399500D01*
X174905720Y-121399500D01*
X174623127Y-121414310D01*
X174250392Y-121473346D01*
X174250385Y-121473347D01*
X173885852Y-121571023D01*
X173533531Y-121706267D01*
X173197275Y-121877599D01*
X172880776Y-122083135D01*
X172587493Y-122320631D01*
X172587485Y-122320638D01*
X172320638Y-122587485D01*
X172320631Y-122587493D01*
X172083135Y-122880776D01*
X171877599Y-123197274D01*
X171706267Y-123533531D01*
X171571023Y-123885852D01*
X171473347Y-124250385D01*
X171473346Y-124250392D01*
X171414310Y-124623127D01*
X171394559Y-124999999D01*
X171394559Y-125000000D01*
X164771431Y-125000000D01*
X164769588Y-124982193D01*
X164801110Y-124919839D01*
X164820405Y-124903119D01*
X165006082Y-124773105D01*
X165173105Y-124606082D01*
X165308600Y-124412578D01*
X165408429Y-124198492D01*
X165408432Y-124198486D01*
X165465636Y-123985000D01*
X164748347Y-123985000D01*
X164681308Y-123965315D01*
X164635553Y-123912511D01*
X164625609Y-123843353D01*
X164629369Y-123826067D01*
X164635000Y-123806888D01*
X164635000Y-123663111D01*
X164629369Y-123643933D01*
X164629370Y-123574064D01*
X164667145Y-123515286D01*
X164730701Y-123486262D01*
X164748347Y-123485000D01*
X165465636Y-123485000D01*
X165465635Y-123484999D01*
X165408432Y-123271513D01*
X165408429Y-123271507D01*
X165308600Y-123057422D01*
X165308599Y-123057420D01*
X165173113Y-122863926D01*
X165173108Y-122863920D01*
X165006082Y-122696894D01*
X164812578Y-122561399D01*
X164598492Y-122461570D01*
X164598486Y-122461567D01*
X164385000Y-122404364D01*
X164385000Y-123122698D01*
X164365315Y-123189737D01*
X164312511Y-123235492D01*
X164243355Y-123245436D01*
X164170766Y-123235000D01*
X164170763Y-123235000D01*
X164099237Y-123235000D01*
X164099233Y-123235000D01*
X164026645Y-123245436D01*
X163957487Y-123235492D01*
X163904684Y-123189736D01*
X163885000Y-123122698D01*
X163885000Y-122404364D01*
X163884999Y-122404364D01*
X163671513Y-122461567D01*
X163671507Y-122461570D01*
X163457422Y-122561399D01*
X163457420Y-122561400D01*
X163263926Y-122696886D01*
X163263920Y-122696891D01*
X163096891Y-122863920D01*
X163096890Y-122863922D01*
X162966880Y-123049595D01*
X162912303Y-123093219D01*
X162842804Y-123100412D01*
X162780450Y-123068890D01*
X162763730Y-123049594D01*
X162633494Y-122863597D01*
X162466402Y-122696506D01*
X162466395Y-122696501D01*
X162272834Y-122560967D01*
X162272830Y-122560965D01*
X162272829Y-122560964D01*
X162058663Y-122461097D01*
X162058659Y-122461096D01*
X162058655Y-122461094D01*
X161830413Y-122399938D01*
X161830403Y-122399936D01*
X161595001Y-122379341D01*
X161594999Y-122379341D01*
X161359596Y-122399936D01*
X161359586Y-122399938D01*
X161131344Y-122461094D01*
X161131335Y-122461098D01*
X160917171Y-122560964D01*
X160917169Y-122560965D01*
X160723597Y-122696505D01*
X160556505Y-122863597D01*
X160426575Y-123049158D01*
X160371998Y-123092783D01*
X160302500Y-123099977D01*
X160240145Y-123068454D01*
X160223425Y-123049158D01*
X160093494Y-122863597D01*
X159926402Y-122696506D01*
X159926395Y-122696501D01*
X159732834Y-122560967D01*
X159732830Y-122560965D01*
X159732829Y-122560964D01*
X159518663Y-122461097D01*
X159518659Y-122461096D01*
X159518655Y-122461094D01*
X159290413Y-122399938D01*
X159290403Y-122399936D01*
X159055001Y-122379341D01*
X159054999Y-122379341D01*
X158819596Y-122399936D01*
X158819586Y-122399938D01*
X158591344Y-122461094D01*
X158591335Y-122461098D01*
X158377171Y-122560964D01*
X158377169Y-122560965D01*
X158183597Y-122696505D01*
X158016505Y-122863597D01*
X157886575Y-123049158D01*
X157831998Y-123092783D01*
X157762500Y-123099977D01*
X157700145Y-123068454D01*
X157683425Y-123049158D01*
X157553494Y-122863597D01*
X157386402Y-122696506D01*
X157386395Y-122696501D01*
X157192834Y-122560967D01*
X157192830Y-122560965D01*
X157192829Y-122560964D01*
X156978663Y-122461097D01*
X156978659Y-122461096D01*
X156978655Y-122461094D01*
X156750413Y-122399938D01*
X156750403Y-122399936D01*
X156515001Y-122379341D01*
X156514999Y-122379341D01*
X156279596Y-122399936D01*
X156279586Y-122399938D01*
X156051344Y-122461094D01*
X156051335Y-122461098D01*
X155837171Y-122560964D01*
X155837169Y-122560965D01*
X155643597Y-122696505D01*
X155476508Y-122863594D01*
X155346574Y-123049159D01*
X155291997Y-123092784D01*
X155222498Y-123099976D01*
X155160144Y-123068454D01*
X155143424Y-123049158D01*
X155013494Y-122863597D01*
X154846402Y-122696506D01*
X154846395Y-122696501D01*
X154652834Y-122560967D01*
X154652830Y-122560965D01*
X154652830Y-122560964D01*
X154438663Y-122461097D01*
X154438659Y-122461096D01*
X154438655Y-122461094D01*
X154210413Y-122399938D01*
X154210403Y-122399936D01*
X153975001Y-122379341D01*
X153974999Y-122379341D01*
X153739596Y-122399936D01*
X153739586Y-122399938D01*
X153511344Y-122461094D01*
X153511335Y-122461098D01*
X153297171Y-122560964D01*
X153297169Y-122560965D01*
X153103597Y-122696505D01*
X152936505Y-122863597D01*
X152806575Y-123049158D01*
X152751998Y-123092783D01*
X152682500Y-123099977D01*
X152620145Y-123068454D01*
X152603425Y-123049158D01*
X152473494Y-122863597D01*
X152306402Y-122696506D01*
X152306395Y-122696501D01*
X152112834Y-122560967D01*
X152112830Y-122560965D01*
X152112830Y-122560964D01*
X151898663Y-122461097D01*
X151898659Y-122461096D01*
X151898655Y-122461094D01*
X151670413Y-122399938D01*
X151670403Y-122399936D01*
X151435001Y-122379341D01*
X151434999Y-122379341D01*
X151199596Y-122399936D01*
X151199586Y-122399938D01*
X150971344Y-122461094D01*
X150971335Y-122461098D01*
X150757171Y-122560964D01*
X150757169Y-122560965D01*
X150563597Y-122696505D01*
X150396505Y-122863597D01*
X150266575Y-123049158D01*
X150211998Y-123092783D01*
X150142500Y-123099977D01*
X150080145Y-123068454D01*
X150063425Y-123049158D01*
X149933494Y-122863597D01*
X149766402Y-122696506D01*
X149766395Y-122696501D01*
X149572834Y-122560967D01*
X149572830Y-122560965D01*
X149572829Y-122560964D01*
X149358663Y-122461097D01*
X149358659Y-122461096D01*
X149358655Y-122461094D01*
X149130413Y-122399938D01*
X149130403Y-122399936D01*
X148895001Y-122379341D01*
X148894999Y-122379341D01*
X148659596Y-122399936D01*
X148659586Y-122399938D01*
X148431344Y-122461094D01*
X148431335Y-122461098D01*
X148217171Y-122560964D01*
X148217169Y-122560965D01*
X148023597Y-122696505D01*
X147856505Y-122863597D01*
X147726575Y-123049158D01*
X147671998Y-123092783D01*
X147602500Y-123099977D01*
X147540145Y-123068454D01*
X147523425Y-123049158D01*
X147393494Y-122863597D01*
X147226402Y-122696506D01*
X147226395Y-122696501D01*
X147032834Y-122560967D01*
X147032830Y-122560965D01*
X147032828Y-122560964D01*
X146818663Y-122461097D01*
X146818659Y-122461096D01*
X146818655Y-122461094D01*
X146590413Y-122399938D01*
X146590403Y-122399936D01*
X146355001Y-122379341D01*
X146354999Y-122379341D01*
X146119596Y-122399936D01*
X146119586Y-122399938D01*
X145891344Y-122461094D01*
X145891335Y-122461098D01*
X145677171Y-122560964D01*
X145677169Y-122560965D01*
X145483597Y-122696505D01*
X145316505Y-122863597D01*
X145186575Y-123049158D01*
X145131998Y-123092783D01*
X145062500Y-123099977D01*
X145000145Y-123068454D01*
X144983425Y-123049158D01*
X144853494Y-122863597D01*
X144686402Y-122696506D01*
X144686395Y-122696501D01*
X144492834Y-122560967D01*
X144492830Y-122560965D01*
X144492830Y-122560964D01*
X144278663Y-122461097D01*
X144278659Y-122461096D01*
X144278655Y-122461094D01*
X144050413Y-122399938D01*
X144050403Y-122399936D01*
X143815001Y-122379341D01*
X143814999Y-122379341D01*
X143579596Y-122399936D01*
X143579586Y-122399938D01*
X143351344Y-122461094D01*
X143351335Y-122461098D01*
X143137171Y-122560964D01*
X143137169Y-122560965D01*
X142943597Y-122696505D01*
X142776505Y-122863597D01*
X142646575Y-123049158D01*
X142591998Y-123092783D01*
X142522500Y-123099977D01*
X142460145Y-123068454D01*
X142443425Y-123049158D01*
X142313494Y-122863597D01*
X142146402Y-122696506D01*
X142146395Y-122696501D01*
X141952834Y-122560967D01*
X141952830Y-122560965D01*
X141952828Y-122560964D01*
X141738663Y-122461097D01*
X141738659Y-122461096D01*
X141738655Y-122461094D01*
X141510413Y-122399938D01*
X141510403Y-122399936D01*
X141275001Y-122379341D01*
X141274999Y-122379341D01*
X141039596Y-122399936D01*
X141039586Y-122399938D01*
X140811344Y-122461094D01*
X140811335Y-122461098D01*
X140597171Y-122560964D01*
X140597169Y-122560965D01*
X140403597Y-122696505D01*
X140236505Y-122863597D01*
X140106575Y-123049158D01*
X140051998Y-123092783D01*
X139982500Y-123099977D01*
X139920145Y-123068454D01*
X139903425Y-123049158D01*
X139773494Y-122863597D01*
X139606402Y-122696506D01*
X139606395Y-122696501D01*
X139412834Y-122560967D01*
X139412830Y-122560965D01*
X139412829Y-122560964D01*
X139198663Y-122461097D01*
X139198659Y-122461096D01*
X139198655Y-122461094D01*
X138970413Y-122399938D01*
X138970403Y-122399936D01*
X138735001Y-122379341D01*
X138734999Y-122379341D01*
X138499596Y-122399936D01*
X138499586Y-122399938D01*
X138271344Y-122461094D01*
X138271335Y-122461098D01*
X138057171Y-122560964D01*
X138057169Y-122560965D01*
X137863597Y-122696505D01*
X137696505Y-122863597D01*
X137566575Y-123049158D01*
X137511998Y-123092783D01*
X137442500Y-123099977D01*
X137380145Y-123068454D01*
X137363425Y-123049158D01*
X137233494Y-122863597D01*
X137066402Y-122696506D01*
X137066395Y-122696501D01*
X136872834Y-122560967D01*
X136872830Y-122560965D01*
X136872828Y-122560964D01*
X136658663Y-122461097D01*
X136658659Y-122461096D01*
X136658655Y-122461094D01*
X136430413Y-122399938D01*
X136430403Y-122399936D01*
X136195001Y-122379341D01*
X136194999Y-122379341D01*
X135959596Y-122399936D01*
X135959586Y-122399938D01*
X135731344Y-122461094D01*
X135731335Y-122461098D01*
X135517171Y-122560964D01*
X135517169Y-122560965D01*
X135323597Y-122696505D01*
X135156505Y-122863597D01*
X135026575Y-123049158D01*
X134971998Y-123092783D01*
X134902500Y-123099977D01*
X134840145Y-123068454D01*
X134823425Y-123049158D01*
X134693494Y-122863597D01*
X134526402Y-122696506D01*
X134526395Y-122696501D01*
X134332834Y-122560967D01*
X134332830Y-122560965D01*
X134332829Y-122560964D01*
X134118663Y-122461097D01*
X134118659Y-122461096D01*
X134118655Y-122461094D01*
X133890413Y-122399938D01*
X133890403Y-122399936D01*
X133655001Y-122379341D01*
X133654999Y-122379341D01*
X133419596Y-122399936D01*
X133419586Y-122399938D01*
X133191344Y-122461094D01*
X133191335Y-122461098D01*
X132977171Y-122560964D01*
X132977169Y-122560965D01*
X132783597Y-122696505D01*
X132616505Y-122863597D01*
X132486575Y-123049158D01*
X132431998Y-123092783D01*
X132362500Y-123099977D01*
X132300145Y-123068454D01*
X132283425Y-123049158D01*
X132153494Y-122863597D01*
X131986402Y-122696506D01*
X131986395Y-122696501D01*
X131792834Y-122560967D01*
X131792830Y-122560965D01*
X131792828Y-122560964D01*
X131578663Y-122461097D01*
X131578659Y-122461096D01*
X131578655Y-122461094D01*
X131350413Y-122399938D01*
X131350403Y-122399936D01*
X131115001Y-122379341D01*
X131114999Y-122379341D01*
X130879596Y-122399936D01*
X130879586Y-122399938D01*
X130651344Y-122461094D01*
X130651335Y-122461098D01*
X130437171Y-122560964D01*
X130437169Y-122560965D01*
X130243597Y-122696505D01*
X130076508Y-122863594D01*
X129946574Y-123049159D01*
X129891997Y-123092784D01*
X129822498Y-123099976D01*
X129760144Y-123068454D01*
X129743424Y-123049158D01*
X129613494Y-122863597D01*
X129446402Y-122696506D01*
X129446395Y-122696501D01*
X129252834Y-122560967D01*
X129252830Y-122560965D01*
X129252830Y-122560964D01*
X129038663Y-122461097D01*
X129038659Y-122461096D01*
X129038655Y-122461094D01*
X128810413Y-122399938D01*
X128810403Y-122399936D01*
X128575001Y-122379341D01*
X128574999Y-122379341D01*
X128339596Y-122399936D01*
X128339586Y-122399938D01*
X128111344Y-122461094D01*
X128111335Y-122461098D01*
X127897171Y-122560964D01*
X127897169Y-122560965D01*
X127703597Y-122696505D01*
X127536505Y-122863597D01*
X127406575Y-123049158D01*
X127351998Y-123092783D01*
X127282500Y-123099977D01*
X127220145Y-123068454D01*
X127203425Y-123049158D01*
X127073494Y-122863597D01*
X126906402Y-122696506D01*
X126906395Y-122696501D01*
X126712834Y-122560967D01*
X126712830Y-122560965D01*
X126712828Y-122560964D01*
X126498663Y-122461097D01*
X126498659Y-122461096D01*
X126498655Y-122461094D01*
X126270413Y-122399938D01*
X126270403Y-122399936D01*
X126035001Y-122379341D01*
X126034999Y-122379341D01*
X125799596Y-122399936D01*
X125799586Y-122399938D01*
X125571344Y-122461094D01*
X125571335Y-122461098D01*
X125357171Y-122560964D01*
X125357169Y-122560965D01*
X125163597Y-122696505D01*
X124996505Y-122863597D01*
X124866575Y-123049158D01*
X124811998Y-123092783D01*
X124742500Y-123099977D01*
X124680145Y-123068454D01*
X124663425Y-123049158D01*
X124533494Y-122863597D01*
X124366402Y-122696506D01*
X124366395Y-122696501D01*
X124172834Y-122560967D01*
X124172830Y-122560965D01*
X124172829Y-122560964D01*
X123958663Y-122461097D01*
X123958659Y-122461096D01*
X123958655Y-122461094D01*
X123730413Y-122399938D01*
X123730403Y-122399936D01*
X123495001Y-122379341D01*
X123494999Y-122379341D01*
X123259596Y-122399936D01*
X123259586Y-122399938D01*
X123031344Y-122461094D01*
X123031335Y-122461098D01*
X122817171Y-122560964D01*
X122817169Y-122560965D01*
X122623597Y-122696505D01*
X122456505Y-122863597D01*
X122326575Y-123049158D01*
X122271998Y-123092783D01*
X122202500Y-123099977D01*
X122140145Y-123068454D01*
X122123425Y-123049158D01*
X121993494Y-122863597D01*
X121826402Y-122696506D01*
X121826395Y-122696501D01*
X121632834Y-122560967D01*
X121632830Y-122560965D01*
X121632828Y-122560964D01*
X121418663Y-122461097D01*
X121418659Y-122461096D01*
X121418655Y-122461094D01*
X121190413Y-122399938D01*
X121190403Y-122399936D01*
X120955001Y-122379341D01*
X120954999Y-122379341D01*
X120719596Y-122399936D01*
X120719586Y-122399938D01*
X120491344Y-122461094D01*
X120491335Y-122461098D01*
X120277171Y-122560964D01*
X120277169Y-122560965D01*
X120083597Y-122696505D01*
X119916505Y-122863597D01*
X119786575Y-123049158D01*
X119731998Y-123092783D01*
X119662500Y-123099977D01*
X119600145Y-123068454D01*
X119583425Y-123049158D01*
X119453494Y-122863597D01*
X119286402Y-122696506D01*
X119286395Y-122696501D01*
X119092834Y-122560967D01*
X119092830Y-122560965D01*
X119092829Y-122560964D01*
X118878663Y-122461097D01*
X118878659Y-122461096D01*
X118878655Y-122461094D01*
X118650413Y-122399938D01*
X118650403Y-122399936D01*
X118415001Y-122379341D01*
X118414999Y-122379341D01*
X118179596Y-122399936D01*
X118179586Y-122399938D01*
X117951344Y-122461094D01*
X117951335Y-122461098D01*
X117737171Y-122560964D01*
X117737169Y-122560965D01*
X117543597Y-122696505D01*
X117376508Y-122863594D01*
X117246574Y-123049159D01*
X117191997Y-123092784D01*
X117122498Y-123099976D01*
X117060144Y-123068454D01*
X117043424Y-123049158D01*
X116913494Y-122863597D01*
X116746402Y-122696506D01*
X116746395Y-122696501D01*
X116552834Y-122560967D01*
X116552830Y-122560965D01*
X116552828Y-122560964D01*
X116338663Y-122461097D01*
X116338659Y-122461096D01*
X116338655Y-122461094D01*
X116110413Y-122399938D01*
X116110403Y-122399936D01*
X115875001Y-122379341D01*
X115874999Y-122379341D01*
X115639596Y-122399936D01*
X115639586Y-122399938D01*
X115411344Y-122461094D01*
X115411335Y-122461098D01*
X115197171Y-122560964D01*
X115197169Y-122560965D01*
X115003597Y-122696505D01*
X114836505Y-122863597D01*
X114700965Y-123057169D01*
X114700964Y-123057171D01*
X114601098Y-123271335D01*
X114601094Y-123271344D01*
X114539938Y-123499586D01*
X114539936Y-123499596D01*
X114519341Y-123734999D01*
X114519341Y-123735000D01*
X108371069Y-123735000D01*
X108293734Y-123533535D01*
X108122403Y-123197280D01*
X108073969Y-123122698D01*
X107916864Y-122880776D01*
X107679368Y-122587493D01*
X107679365Y-122587489D01*
X107412511Y-122320635D01*
X107119225Y-122083137D01*
X107119223Y-122083135D01*
X106802724Y-121877599D01*
X106466468Y-121706267D01*
X106114147Y-121571023D01*
X105749614Y-121473347D01*
X105749607Y-121473346D01*
X105376872Y-121414310D01*
X105094280Y-121399500D01*
X104905720Y-121399500D01*
X104623127Y-121414310D01*
X104250392Y-121473346D01*
X104250385Y-121473347D01*
X103885852Y-121571023D01*
X103533531Y-121706267D01*
X103197275Y-121877599D01*
X102880776Y-122083135D01*
X102587493Y-122320631D01*
X102587485Y-122320638D01*
X102320638Y-122587485D01*
X102320631Y-122587493D01*
X102083135Y-122880776D01*
X101877599Y-123197274D01*
X101706267Y-123533531D01*
X101571023Y-123885852D01*
X101473347Y-124250385D01*
X101473346Y-124250392D01*
X101414310Y-124623127D01*
X101394559Y-124999999D01*
X101394559Y-125000000D01*
X100500500Y-125000000D01*
X100500500Y-55000000D01*
X101394559Y-55000000D01*
X101414310Y-55376872D01*
X101473346Y-55749607D01*
X101473347Y-55749614D01*
X101571023Y-56114147D01*
X101706267Y-56466468D01*
X101877599Y-56802724D01*
X102083135Y-57119223D01*
X102083137Y-57119225D01*
X102320635Y-57412511D01*
X102587489Y-57679365D01*
X102587493Y-57679368D01*
X102880776Y-57916864D01*
X103197275Y-58122400D01*
X103197280Y-58122403D01*
X103533535Y-58293734D01*
X103885857Y-58428978D01*
X104250387Y-58526653D01*
X104623129Y-58585690D01*
X104905720Y-58600500D01*
X105094280Y-58600500D01*
X105376871Y-58585690D01*
X105749613Y-58526653D01*
X106114143Y-58428978D01*
X106466465Y-58293734D01*
X106802720Y-58122403D01*
X107119225Y-57916863D01*
X107412511Y-57679365D01*
X107679365Y-57412511D01*
X107916863Y-57119225D01*
X108122403Y-56802721D01*
X108293734Y-56466465D01*
X108428978Y-56114143D01*
X108526653Y-55749613D01*
X108585690Y-55376871D01*
X108605441Y-55000000D01*
X171394559Y-55000000D01*
X171414310Y-55376872D01*
X171473346Y-55749607D01*
X171473347Y-55749614D01*
X171571023Y-56114147D01*
X171706267Y-56466468D01*
X171877599Y-56802724D01*
X172083135Y-57119223D01*
X172083137Y-57119225D01*
X172320635Y-57412511D01*
X172587489Y-57679365D01*
X172587493Y-57679368D01*
X172880776Y-57916864D01*
X173197275Y-58122400D01*
X173197280Y-58122403D01*
X173533535Y-58293734D01*
X173885857Y-58428978D01*
X174250387Y-58526653D01*
X174623129Y-58585690D01*
X174905720Y-58600500D01*
X175094280Y-58600500D01*
X175376871Y-58585690D01*
X175749613Y-58526653D01*
X176114143Y-58428978D01*
X176466465Y-58293734D01*
X176802720Y-58122403D01*
X177119225Y-57916863D01*
X177412511Y-57679365D01*
X177679365Y-57412511D01*
X177916863Y-57119225D01*
X178122403Y-56802721D01*
X178293734Y-56466465D01*
X178428978Y-56114143D01*
X178526653Y-55749613D01*
X178585690Y-55376871D01*
X178605441Y-55000000D01*
X178585690Y-54623129D01*
X178526653Y-54250387D01*
X178428978Y-53885857D01*
X178293734Y-53533535D01*
X178122403Y-53197280D01*
X177916863Y-52880775D01*
X177679365Y-52587489D01*
X177412511Y-52320635D01*
X177119225Y-52083137D01*
X177119223Y-52083135D01*
X176802724Y-51877599D01*
X176466468Y-51706267D01*
X176114147Y-51571023D01*
X175749614Y-51473347D01*
X175749607Y-51473346D01*
X175376872Y-51414310D01*
X175094280Y-51399500D01*
X174905720Y-51399500D01*
X174623127Y-51414310D01*
X174250392Y-51473346D01*
X174250385Y-51473347D01*
X173885852Y-51571023D01*
X173533531Y-51706267D01*
X173197275Y-51877599D01*
X172880776Y-52083135D01*
X172587493Y-52320631D01*
X172587485Y-52320638D01*
X172320638Y-52587485D01*
X172320631Y-52587493D01*
X172083135Y-52880776D01*
X171877599Y-53197274D01*
X171706267Y-53533531D01*
X171571023Y-53885852D01*
X171473347Y-54250385D01*
X171473346Y-54250392D01*
X171414310Y-54623127D01*
X171394559Y-54999999D01*
X171394559Y-55000000D01*
X108605441Y-55000000D01*
X108585690Y-54623129D01*
X108526653Y-54250387D01*
X108428978Y-53885857D01*
X108293734Y-53533535D01*
X108122403Y-53197280D01*
X107916863Y-52880775D01*
X107679365Y-52587489D01*
X107412511Y-52320635D01*
X107119225Y-52083137D01*
X107119223Y-52083135D01*
X106802724Y-51877599D01*
X106466468Y-51706267D01*
X106114147Y-51571023D01*
X105749614Y-51473347D01*
X105749607Y-51473346D01*
X105376872Y-51414310D01*
X105094280Y-51399500D01*
X104905720Y-51399500D01*
X104623127Y-51414310D01*
X104250392Y-51473346D01*
X104250385Y-51473347D01*
X103885852Y-51571023D01*
X103533531Y-51706267D01*
X103197275Y-51877599D01*
X102880776Y-52083135D01*
X102587493Y-52320631D01*
X102587485Y-52320638D01*
X102320638Y-52587485D01*
X102320631Y-52587493D01*
X102083135Y-52880776D01*
X101877599Y-53197274D01*
X101706267Y-53533531D01*
X101571023Y-53885852D01*
X101473347Y-54250385D01*
X101473346Y-54250392D01*
X101414310Y-54623127D01*
X101394559Y-54999999D01*
X101394559Y-55000000D01*
X100500500Y-55000000D01*
X100500500Y-50624500D01*
X100520185Y-50557461D01*
X100572989Y-50511706D01*
X100624500Y-50500500D01*
X179375500Y-50500500D01*
X179442539Y-50520185D01*
G37*
%TD.AperFunction*%
%TD*%
M02*
