M48
; DRILL file {KiCad 7.0.7} date Thu Sep 14 11:38:21 2023
; FORMAT={-:-/ absolute / metric / decimal}
; #@! TF.CreationDate,2023-09-14T11:38:21+02:00
; #@! TF.GenerationSoftware,Kicad,Pcbnew,7.0.7
; #@! TF.FileFunction,Plated,1,4,PTH
FMAT,2
METRIC
; #@! TA.AperFunction,Plated,PTH,ComponentDrill
T1C1.000
%
G90
G05
T1
X115.875Y-123.735
X115.875Y-126.275
X118.415Y-123.735
X118.415Y-126.275
X120.955Y-123.735
X120.955Y-126.275
X123.495Y-123.735
X123.495Y-126.275
X126.035Y-123.735
X126.035Y-126.275
X128.575Y-123.735
X128.575Y-126.275
X131.115Y-123.735
X131.115Y-126.275
X133.655Y-123.735
X133.655Y-126.275
X136.195Y-123.735
X136.195Y-126.275
X138.735Y-123.735
X138.735Y-126.275
X141.275Y-123.735
X141.275Y-126.275
X143.815Y-123.735
X143.815Y-126.275
X146.355Y-123.735
X146.355Y-126.275
X148.895Y-123.735
X148.895Y-126.275
X151.435Y-123.735
X151.435Y-126.275
X153.975Y-123.735
X153.975Y-126.275
X156.515Y-123.735
X156.515Y-126.275
X159.055Y-123.735
X159.055Y-126.275
X161.595Y-123.735
X161.595Y-126.275
X164.135Y-123.735
X164.135Y-126.275
T0
M30
